<svg width="144" height="24" viewBox="0 0 144 24" fill="none" xmlns="http://www.w3.org/2000/svg">
<path d="M42.8046 5.49869H33.6006V18.8851H36.0032V12.976H42.1762V10.9871H36.0032V7.52578H42.8046V5.49869Z" fill="#0A0B0D"/>
<path d="M45.1624 7.60227C45.9201 7.60227 46.5116 6.99032 46.5116 6.20626C46.5116 5.42219 45.9201 4.79112 45.1624 4.79112C44.4046 4.79112 43.7947 5.44132 43.7947 6.20626C43.7947 6.9712 44.4046 7.60227 45.1624 7.60227ZM44.035 18.8851H46.2898V9.01741H44.035V18.8851Z" fill="#0A0B0D"/>
<path d="M50.7066 12.7847L50.6326 9.01741H48.4517V18.8851H50.7066V15.0031C50.762 12.0007 51.8709 11.0254 54.8465 10.8341V8.86443C52.1851 8.86443 51.2056 9.91622 50.7805 12.7847H50.7066Z" fill="#0A0B0D"/>
<path d="M59.8452 19.1911C62.5436 19.1911 64.133 18.0437 64.133 16.1122C64.133 14.6397 63.2274 13.7983 61.3607 13.3776L58.8472 12.823C58.0524 12.6318 57.6089 12.211 57.6089 11.6756C57.6089 10.8915 58.3666 10.4134 59.6234 10.4134C61.0096 10.4134 61.8228 11.1019 61.8228 12.2302H63.9852C63.9852 10.0118 62.3403 8.71144 59.5495 8.71144C56.999 8.71144 55.391 9.89709 55.391 11.733C55.391 13.2246 56.4445 14.1616 58.1818 14.525L60.5845 15.0604C61.564 15.2899 61.8967 15.615 61.8967 16.2079C61.8967 17.011 61.1204 17.4891 59.8637 17.4891C58.3297 17.4891 57.461 16.8389 57.3871 15.6724H55.1692C55.2432 17.929 56.9065 19.1911 59.8452 19.1911Z" fill="#0A0B0D"/>
<path d="M70.9851 9.01741H68.2867L68.2128 6.43574H66.0689V9.01741H64.5164V10.509H66.0689V16.2461C66.0689 18.4262 67.0299 18.9808 69.1923 18.9999C69.7283 18.9999 70.3197 18.9616 70.9851 18.9043V17.0684C70.5045 17.1067 70.1164 17.1258 69.7098 17.1258C68.6563 17.1258 68.3237 16.8963 68.3237 15.9019V10.509H70.9851V9.01741Z" fill="#0A0B0D"/>
<path d="M85.5623 5.49869H76.3583V18.8851H78.761V12.976H84.9339V10.9871H78.761V7.52578H85.5623V5.49869Z" fill="#0A0B0D"/>
<path d="M87.9201 7.60227C88.6779 7.60227 89.2693 6.99032 89.2693 6.20626C89.2693 5.42219 88.6779 4.79112 87.9201 4.79112C87.1623 4.79112 86.5524 5.44132 86.5524 6.20626C86.5524 6.9712 87.1623 7.60227 87.9201 7.60227ZM86.7927 18.8851H89.0475V9.01741H86.7927V18.8851Z" fill="#0A0B0D"/>
<path d="M97.0498 8.71144C95.3125 8.71144 93.8339 9.95447 93.5752 11.9624H93.4643L93.3903 9.01741H91.2095V18.8851H93.4643V13.76C93.4643 11.8286 94.4438 10.6047 95.9778 10.6047C97.4009 10.6047 98.2881 11.58 98.2881 13.1672V18.8851H100.524V12.4405C100.524 10.0883 99.0089 8.71144 97.0498 8.71144Z" fill="#0A0B0D"/>
<path d="M101.936 16.4565C101.936 18.2923 103.323 19.1911 105.171 19.1911C107.093 19.1911 108.719 18.1011 108.96 15.7489H109.052L109.144 18.8851H111.27V12.5553C111.27 10.4708 110.032 8.71144 106.797 8.71144C103.674 8.71144 102.084 10.662 102.01 12.8804H104.247C104.358 11.58 105.152 10.5282 106.797 10.5282C108.498 10.5282 109.052 11.4461 109.052 12.1919C109.052 13.3202 108.165 13.6453 105.781 13.6071C103.156 13.5688 101.936 14.7353 101.936 16.4565ZM104.247 16.2461C104.247 15.4429 104.801 14.9648 105.688 14.9266C108.165 14.7927 108.775 14.2764 108.96 13.1098H109.052V14.6206C109.052 16.0931 107.74 17.5656 105.947 17.5847C104.801 17.5847 104.247 17.0875 104.247 16.2461Z" fill="#0A0B0D"/>
<path d="M119.033 8.71144C117.296 8.71144 115.817 9.95447 115.559 11.9624H115.448L115.374 9.01741H113.193V18.8851H115.448V13.76C115.448 11.8286 116.427 10.6047 117.961 10.6047C119.384 10.6047 120.272 11.58 120.272 13.1672V18.8851H122.508V12.4405C122.508 10.0883 120.992 8.71144 119.033 8.71144Z" fill="#0A0B0D"/>
<path d="M124.012 13.8748C124.012 17.3744 126.138 19.1911 128.873 19.1911C131.405 19.1911 133.42 17.623 133.494 14.831H131.239C131.202 16.38 130.352 17.3553 128.855 17.3553C127.302 17.3553 126.304 16.074 126.304 13.8365C126.304 11.8094 127.265 10.5473 128.855 10.5473C130.278 10.5473 131.202 11.427 131.239 12.9951H133.494C133.383 10.3752 131.534 8.71144 128.873 8.71144C126.045 8.71144 124.012 10.662 124.012 13.8748Z" fill="#0A0B0D"/>
<path d="M144.001 13.6262C144.001 10.9106 142.208 8.71144 139.288 8.71144C136.349 8.71144 134.408 10.7003 134.408 13.913C134.408 17.3935 136.386 19.1911 139.399 19.1911C141.524 19.1911 143.631 17.8716 143.927 15.4429H141.875C141.635 16.5521 140.729 17.3744 139.399 17.3744C137.772 17.3744 136.626 16.3035 136.571 14.3911H144.001V13.6262ZM139.195 10.5282C140.692 10.5282 141.672 11.4843 141.783 13.0716H136.571C136.682 11.3887 137.791 10.5282 139.195 10.5282Z" fill="#0A0B0D"/>
<path fill-rule="evenodd" clip-rule="evenodd" d="M13.3157 0.0471639L23.3151 3.61269C23.5196 3.69091 23.6949 3.83034 23.8173 4.01198C23.9397 4.19362 24.0032 4.40864 23.999 4.6277V8.79983C24.0061 8.96247 23.9738 9.12441 23.9049 9.27188C23.836 9.41935 23.7326 9.54798 23.6034 9.64685C23.4742 9.74572 23.3231 9.81189 23.1629 9.83974C23.0026 9.86759 22.8381 9.85631 22.6831 9.80683L22.6311 9.78881L13.3157 6.46752C13.1603 6.41832 12.9953 6.40744 12.8348 6.4358C12.6743 6.46415 12.523 6.53091 12.3938 6.63037C12.2646 6.72984 12.1613 6.85908 12.0927 7.0071C12.0241 7.15512 11.9922 7.31753 11.9998 7.48052V10.9259C12.0077 11.0891 11.9761 11.2518 11.9077 11.4C11.8392 11.5483 11.736 11.6778 11.6067 11.7775C11.4775 11.8772 11.326 11.9442 11.1653 11.9726C11.0047 12.0011 10.8395 11.9902 10.6839 11.9409L1.31652 8.60164L0.684555 8.37541C0.480268 8.29695 0.305056 8.15746 0.182696 7.97587C0.0603352 7.79428 -0.00324199 7.57941 0.000602983 7.3604V3.19428C-0.00498593 3.03228 0.0283442 2.8713 0.0977891 2.72487C0.167234 2.57844 0.270759 2.45083 0.399686 2.35276C0.528613 2.25468 0.679173 2.18902 0.838708 2.16127C0.998243 2.13352 1.1621 2.1445 1.31652 2.19329L10.6839 5.52659C10.8393 5.57578 11.0043 5.58666 11.1648 5.55831C11.3254 5.52996 11.4766 5.46321 11.6059 5.36374C11.7351 5.26427 11.8384 5.13503 11.907 4.98702C11.9756 4.839 12.0074 4.67658 11.9998 4.51359V1.06217C11.9919 0.899012 12.0235 0.736358 12.092 0.588074C12.1604 0.43979 12.2637 0.310271 12.3929 0.21057C12.5222 0.110869 12.6736 0.0439393 12.8343 0.0154858C12.995 -0.0129678 13.1602 -0.00209834 13.3157 0.0471639ZM13.3157 12.0591L23.3151 15.6246C23.5196 15.7028 23.6949 15.8422 23.8173 16.0239C23.9397 16.2055 24.0032 16.4205 23.999 16.6396V20.8117C24.0061 20.9744 23.9738 21.1363 23.9049 21.2838C23.836 21.4312 23.7326 21.5599 23.6034 21.6587C23.4742 21.7576 23.3231 21.8238 23.1629 21.8516C23.0026 21.8795 22.8381 21.8682 22.6831 21.8187L22.6311 21.8007L13.3157 18.4794C13.1603 18.4302 12.9953 18.4193 12.8348 18.4477C12.6743 18.476 12.523 18.5428 12.3938 18.6423C12.2646 18.7417 12.1613 18.871 12.0927 19.019C12.0241 19.167 11.9922 19.3294 11.9998 19.4924V22.9378C12.0077 23.101 11.9761 23.2637 11.9077 23.4119C11.8392 23.5602 11.736 23.6897 11.6067 23.7894C11.4775 23.8891 11.326 23.9561 11.1653 23.9845C11.0047 24.013 10.8395 24.0021 10.6839 23.9528L1.31652 20.6135L0.684555 20.3873C0.480268 20.3089 0.305056 20.1694 0.182696 19.9878C0.0603352 19.8062 -0.00324199 19.5913 0.000602983 19.3723V15.2062C-0.00498593 15.0442 0.0283442 14.8832 0.0977891 14.7368C0.167234 14.5903 0.270759 14.4627 0.399686 14.3646C0.528613 14.2666 0.679173 14.2009 0.838708 14.1732C0.998243 14.1454 1.1621 14.1564 1.31652 14.2052L10.6839 17.5385C10.8393 17.5877 11.0043 17.5986 11.1648 17.5702C11.3254 17.5419 11.4766 17.4751 11.6059 17.3756C11.7351 17.2762 11.8384 17.1469 11.907 16.9989C11.9756 16.8509 12.0074 16.6885 11.9998 16.5255V13.0741C11.9919 12.9109 12.0235 12.7483 12.092 12.6C12.1604 12.4517 12.2637 12.3222 12.3929 12.2225C12.5222 12.1228 12.6736 12.0558 12.8343 12.0274C12.995 11.9989 13.1602 12.0098 13.3157 12.0591Z" fill="#2151F6"/>
</svg>
